<svg width="41" height="41" viewBox="0 0 41 41" xmlns="http://www.w3.org/2000/svg">
<circle cx="20.5" cy="20.5" r="20.5" fill="#2C00AB"/>
<path d="M31.9355 15.7582C31.8802 14.5336 31.6824 13.6958 31.4018 12.9638C31.1073 12.2088 30.7162 11.5643 30.0767 10.9289C29.4372 10.2936 28.7976 9.89311 28.0431 9.60308C27.3115 9.31765 26.4742 9.1243 25.2503 9.06906C24.0219 9.01381 23.6308 9 20.5114 9C17.3873 9 16.9963 9.01381 15.7724 9.06906C14.5486 9.1243 13.7112 9.32226 12.9797 9.60308C12.2205 9.89772 11.5764 10.289 10.9415 10.9289C10.3065 11.5689 9.90625 12.2088 9.61639 12.9638C9.33574 13.6958 9.1379 14.5336 9.08269 15.7582C9.02747 16.9874 9.01367 17.3787 9.01367 20.5C9.01367 23.6259 9.02747 24.0172 9.08269 25.2418C9.1379 26.4664 9.33574 27.3042 9.61639 28.0362C9.91085 28.7912 10.3019 29.4357 10.9415 30.0711C11.5764 30.711 12.2205 31.1069 12.9751 31.3969C13.7066 31.6823 14.544 31.8757 15.7678 31.9309C16.9963 31.9862 17.3873 32 20.5068 32C23.6308 32 24.0219 31.9862 25.2457 31.9309C26.4696 31.8757 27.3069 31.6777 28.0385 31.3969C28.793 31.1023 29.4372 30.711 30.0721 30.0711C30.707 29.4311 31.1073 28.7912 31.3971 28.0362C31.6824 27.3042 31.8756 26.4664 31.9309 25.2418C31.9861 24.0126 31.9999 23.6213 31.9999 20.5C31.9999 17.3787 31.9907 16.9828 31.9355 15.7582ZM29.8696 25.1497C29.819 26.273 29.6304 26.8853 29.474 27.2858C29.2669 27.8199 29.0139 28.2066 28.609 28.6117C28.2041 29.0168 27.8222 29.2608 27.2839 29.4772C26.879 29.6337 26.2671 29.8225 25.1491 29.8731C23.9391 29.9283 23.5756 29.9422 20.5022 29.9422C17.4288 29.9422 17.0653 29.9283 15.8552 29.8731C14.7326 29.8225 14.1207 29.6337 13.7204 29.4772C13.1867 29.27 12.8002 29.0168 12.3953 28.6117C11.9905 28.2066 11.7466 27.8245 11.5304 27.2858C11.3739 26.8807 11.1853 26.2684 11.1347 25.1497C11.0795 23.939 11.0657 23.5753 11.0657 20.5C11.0657 17.4247 11.0795 17.061 11.1347 15.8503C11.1853 14.727 11.3739 14.1147 11.5304 13.7142C11.7374 13.1801 11.9905 12.7934 12.3953 12.3883C12.8002 11.9832 13.1821 11.7392 13.7204 11.5228C14.1253 11.3663 14.7372 11.1775 15.8552 11.1269C17.0653 11.0717 17.4288 11.0578 20.5022 11.0578C23.5756 11.0578 23.9391 11.0717 25.1491 11.1269C26.2717 11.1775 26.8836 11.3663 27.2839 11.5228C27.8176 11.73 28.2041 11.9832 28.609 12.3883C29.0139 12.7934 29.2577 13.1755 29.474 13.7142C29.6304 14.1193 29.819 14.7316 29.8696 15.8503C29.9249 17.061 29.9387 17.4247 29.9387 20.5C29.9387 23.5753 29.9203 23.939 29.8696 25.1497Z" fill="url(#paint0_linear_65_179)"/>
<path d="M20.5023 14.5889C17.2357 14.5889 14.5947 17.236 14.5947 20.5C14.5947 23.7686 17.2403 26.4111 20.5023 26.4111C23.7644 26.4111 26.4099 23.7594 26.4099 20.5C26.4099 17.2314 23.769 14.5889 20.5023 14.5889ZM20.5023 24.3349C18.3859 24.3349 16.6697 22.6177 16.6697 20.5C16.6697 18.3823 18.3859 16.6651 20.5023 16.6651C22.6187 16.6651 24.3349 18.3823 24.3349 20.5C24.3349 22.6177 22.6187 24.3349 20.5023 24.3349Z" fill="white"/>
<path d="M26.64 15.7398C27.4023 15.7398 28.0203 15.1215 28.0203 14.3587C28.0203 13.5959 27.4023 12.9776 26.64 12.9776C25.8777 12.9776 25.2598 13.5959 25.2598 14.3587C25.2598 15.1215 25.8777 15.7398 26.64 15.7398Z" fill="white"/>
<path d="M9 20.5C9 23.6259 9.0138 24.0172 9.06901 25.2418C9.12422 26.4664 9.32206 27.3042 9.60272 28.0362C9.89718 28.7912 10.2883 29.4357 10.9278 30.0711C11.5627 30.7064 12.2068 31.1069 12.9614 31.3969C13.6929 31.6823 14.5303 31.8757 15.7542 31.9309C16.9826 31.9862 17.3737 32 20.4931 32C23.6171 32 24.0082 31.9862 25.232 31.9309C26.4559 31.8757 27.2933 31.6777 28.0248 31.3969C28.7794 31.1023 29.4235 30.711 30.0584 30.0711C30.6933 29.4357 31.0936 28.7912 31.3835 28.0362C31.6687 27.3042 31.862 26.4664 31.9172 25.2418C31.9724 24.0126 31.9862 23.6213 31.9862 20.5C31.9862 17.3741 31.9724 16.9828 31.9172 15.7582C31.862 14.5336 31.6641 13.6958 31.3835 12.9638C31.089 12.2088 30.6979 11.5643 30.0584 10.9289C29.4281 10.289 28.784 9.89311 28.0294 9.60308C27.2979 9.31765 26.4605 9.1243 25.2366 9.06906C24.0082 9.01381 23.6171 9 20.4977 9C17.3737 9 16.9826 9.01381 15.7588 9.06906C14.5349 9.1243 13.6975 9.32226 12.966 9.60308C12.2114 9.89772 11.5673 10.289 10.9324 10.9289C10.2975 11.5689 9.89718 12.2088 9.60732 12.9638C9.32206 13.6958 9.12422 14.5336 9.06901 15.7582C9.0138 16.9828 9 17.3741 9 20.5ZM11.075 20.5C11.075 17.4293 11.0888 17.061 11.144 15.8503C11.1946 14.727 11.3833 14.1147 11.5397 13.7142C11.7467 13.1801 11.9998 12.7934 12.4047 12.3883C12.8096 11.9832 13.1914 11.7392 13.7297 11.5228C14.1346 11.3663 14.7465 11.1775 15.8646 11.1269C17.0746 11.0717 17.4381 11.0578 20.5115 11.0578C23.5849 11.0578 23.9484 11.0717 25.1584 11.1269C26.2811 11.1775 26.893 11.3663 27.2933 11.5228C27.827 11.73 28.2134 11.9832 28.6183 12.3883C29.0232 12.7934 29.2671 13.1755 29.4833 13.7142C29.6397 14.1193 29.8284 14.7316 29.879 15.8503C29.9342 17.061 29.948 17.4247 29.948 20.5C29.948 23.5753 29.9342 23.939 29.879 25.1497C29.8284 26.273 29.6397 26.8853 29.4833 27.2858C29.2763 27.8199 29.0232 28.2066 28.6183 28.6117C28.2134 29.0168 27.8316 29.2608 27.2933 29.4772C26.8884 29.6337 26.2765 29.8225 25.1584 29.8731C23.9484 29.9283 23.5849 29.9422 20.5115 29.9422C17.4381 29.9422 17.0746 29.9283 15.8646 29.8731C14.7419 29.8225 14.13 29.6337 13.7297 29.4772C13.196 29.27 12.8096 29.0168 12.4047 28.6117C11.9998 28.2066 11.756 27.8245 11.5397 27.2858C11.3833 26.8807 11.1946 26.2684 11.144 25.1497C11.0842 23.939 11.075 23.5707 11.075 20.5Z" fill="white"/>
<defs>
<linearGradient id="paint0_linear_65_179" x1="28.4497" y1="10.7587" x2="11.8107" y2="31.1448" gradientUnits="userSpaceOnUse">
<stop stop-color="#AE3DAE"/>
<stop offset="0.0468721" stop-color="#B23BA6"/>
<stop offset="0.1216" stop-color="#BD368E"/>
<stop offset="0.2148" stop-color="#CE2E69"/>
<stop offset="0.3216" stop-color="#E62335"/>
<stop offset="0.418" stop-color="#FF1800"/>
</linearGradient>
</defs>
</svg>
