<svg viewBox="0 0 41 41"  xmlns="http://www.w3.org/2000/svg">
<circle cx="20.5" cy="20.5" r="20.5" fill="#2C00AB"/>
<path d="M10 11.4394C10 10.7323 10.2478 10.149 10.7432 9.68939C11.2387 9.22979 11.8829 9 12.6757 9C13.4543 9 14.0843 9.22625 14.5656 9.67879C15.0611 10.1455 15.3089 10.7535 15.3089 11.503C15.3089 12.1818 15.0682 12.7475 14.5869 13.2C14.0914 13.6667 13.4402 13.9 12.6332 13.9H12.612C11.8333 13.9 11.2034 13.6667 10.722 13.2C10.2407 12.7333 10 12.1465 10 11.4394ZM10.2761 30V15.8303H14.9903V30H10.2761ZM17.6023 30H22.3166V22.0879C22.3166 21.5929 22.3732 21.2111 22.4865 20.9424C22.6847 20.4616 22.9855 20.055 23.389 19.7227C23.7925 19.3904 24.2986 19.2242 24.9073 19.2242C26.4929 19.2242 27.2857 20.2919 27.2857 22.4273V30H32V21.8758C32 19.7828 31.5045 18.1955 30.5135 17.1136C29.5225 16.0318 28.213 15.4909 26.5849 15.4909C24.7587 15.4909 23.3359 16.2758 22.3166 17.8455V17.8879H22.2954L22.3166 17.8455V15.8303H17.6023C17.6306 16.2828 17.6448 17.6899 17.6448 20.0515C17.6448 22.4131 17.6306 25.7293 17.6023 30Z" fill="white"/>
</svg>
