<svg  viewBox="0 0 12 10" xmlns="http://www.w3.org/2000/svg">
<path d="M2.87265 5.4051C2.18564 5.4051 1.62431 5.18727 1.18865 4.75161C0.752987 4.31595 0.535156 3.71691 0.535156 2.9545C0.535156 2.44344 0.635694 2.00359 0.836768 1.63495C1.03784 1.26631 1.31432 0.985648 1.6662 0.792951C2.02646 0.600255 2.42861 0.503906 2.87265 0.503906C3.31669 0.503906 3.71465 0.600255 4.06653 0.792951C4.42679 0.985648 4.70745 1.26631 4.90853 1.63495C5.1096 2.00359 5.21014 2.44344 5.21014 2.9545C5.21014 3.71691 4.99231 4.31595 4.55665 4.75161C4.12099 5.18727 3.55965 5.4051 2.87265 5.4051ZM8.03775 0.629578H10.1616L4.1545 9.42659H2.03065L8.03775 0.629578ZM2.87265 4.04785C3.03183 4.04785 3.16169 3.96406 3.26223 3.7965C3.37115 3.62056 3.4256 3.3399 3.4256 2.9545C3.4256 2.56911 3.37115 2.29263 3.26223 2.12507C3.16169 1.94913 3.03183 1.86116 2.87265 1.86116C2.71346 1.86116 2.57941 1.94913 2.4705 2.12507C2.36996 2.29263 2.31969 2.56911 2.31969 2.9545C2.31969 3.3399 2.36996 3.62056 2.4705 3.7965C2.57941 3.96406 2.71346 4.04785 2.87265 4.04785ZM9.3196 9.55226C8.6326 9.55226 8.07126 9.33443 7.6356 8.89877C7.19994 8.46311 6.98211 7.86407 6.98211 7.10167C6.98211 6.5906 7.08265 6.15075 7.28372 5.78211C7.4848 5.41348 7.76127 5.13281 8.11315 4.94011C8.47341 4.74742 8.87556 4.65107 9.3196 4.65107C9.76364 4.65107 10.1616 4.74742 10.5135 4.94011C10.8737 5.13281 11.1544 5.41348 11.3555 5.78211C11.5566 6.15075 11.6571 6.5906 11.6571 7.10167C11.6571 7.86407 11.4393 8.46311 11.0036 8.89877C10.5679 9.33443 10.0066 9.55226 9.3196 9.55226ZM9.3196 8.19501C9.47879 8.19501 9.60865 8.11123 9.70918 7.94367C9.8181 7.76773 9.87256 7.48706 9.87256 7.10167C9.87256 6.71627 9.8181 6.4398 9.70918 6.27223C9.60865 6.09629 9.47879 6.00832 9.3196 6.00832C9.16042 6.00832 9.02637 6.09629 8.91745 6.27223C8.81691 6.4398 8.76665 6.71627 8.76665 7.10167C8.76665 7.48706 8.81691 7.76773 8.91745 7.94367C9.02637 8.11123 9.16042 8.19501 9.3196 8.19501Z"/>
</svg>
