<svg viewBox="0 0 27 28" xmlns="http://www.w3.org/2000/svg">
<path d="M24.5058 7.2863C25.6962 8.53337 26.5035 10.0961 26.8314 11.7887C27.1594 13.4813 26.9943 15.2324 26.3558 16.8339C25.7173 18.4353 24.6323 19.8197 23.2297 20.8223C21.8272 21.8249 20.1662 22.4036 18.4443 22.4896L17.9966 22.5008L10.5873 22.4986L13.1703 25.0838C13.3567 25.2699 13.4718 25.5156 13.4957 25.7779C13.5195 26.0402 13.4505 26.3026 13.3008 26.5193L13.1703 26.6746C12.9842 26.8609 12.7385 26.9761 12.4762 26.9999C12.2139 27.0237 11.9515 26.9548 11.7348 26.8051L11.5796 26.6746L7.07506 22.1701C6.88904 21.9836 6.77432 21.7378 6.75088 21.4755C6.72745 21.2132 6.79678 20.951 6.94681 20.7346L7.07506 20.5793L11.5796 16.0748C11.778 15.8755 12.0439 15.7577 12.3248 15.7447C12.6058 15.7317 12.8814 15.8244 13.0974 16.0045C13.3134 16.1847 13.454 16.4392 13.4917 16.7179C13.5294 16.9966 13.4613 17.2793 13.3008 17.5103L13.1703 17.6678L10.5873 20.2486H17.9966C19.7179 20.2487 21.3743 19.5912 22.6269 18.4105C23.8795 17.2298 24.6337 15.6152 24.7353 13.8968L24.7466 13.5008C24.7493 11.7238 24.0488 10.0179 22.7981 8.75555C22.5927 8.54777 22.4763 8.26828 22.4733 7.97618C22.4704 7.68408 22.5811 7.40229 22.7822 7.19039C22.9833 6.9785 23.2589 6.85313 23.5508 6.8408C23.8426 6.82846 24.1278 6.93013 24.3461 7.1243L24.5081 7.2863H24.5058ZM15.2606 0.196552L15.4181 0.324803L19.9203 4.8293L20.0508 4.9868C20.1805 5.17467 20.2499 5.39754 20.2499 5.6258C20.2499 5.85407 20.1805 6.07693 20.0508 6.2648L19.9203 6.4223L15.4181 10.9246L15.2606 11.0551C15.0727 11.1847 14.8498 11.2541 14.6216 11.2541C14.3933 11.2541 14.1704 11.1847 13.9826 11.0551L13.8251 10.9246L13.6968 10.7671C13.5672 10.5792 13.4977 10.3563 13.4977 10.1281C13.4977 9.89979 13.5672 9.67692 13.6968 9.48905L13.8251 9.33155L16.4081 6.7508H8.99656C7.27483 6.75071 5.61815 7.40853 4.36547 8.58969C3.11279 9.77085 2.35882 11.386 2.25781 13.1048L2.24656 13.5008C2.24656 15.3458 2.98681 17.0153 4.18381 18.2348C4.37336 18.4512 4.47278 18.7321 4.46164 19.0196C4.4505 19.307 4.32964 19.5793 4.12391 19.7804C3.91819 19.9816 3.64322 20.0962 3.35556 20.1008C3.0679 20.1055 2.78939 19.9997 2.57731 19.8053C1.36239 18.5676 0.530939 17.0053 0.182991 15.3063C-0.164957 13.6072 -0.0145847 11.8438 0.616018 10.2282C1.24662 8.61258 2.33059 7.21359 3.73753 6.1995C5.14447 5.18541 6.81445 4.59943 8.54656 4.51205L8.99656 4.5008L16.4081 4.49855L13.8251 1.9178L13.6968 1.7603C13.5486 1.54374 13.4808 1.28219 13.5051 1.02091C13.5294 0.759631 13.6442 0.515056 13.8298 0.329507C14.0153 0.143957 14.2599 0.0291066 14.5212 0.00482754C14.7824 -0.0194515 15.044 0.0483682 15.2606 0.196552Z"/>
</svg>
